<svg width="26" height="30" viewBox="0 0 26 30" fill="none" xmlns="http://www.w3.org/2000/svg">
<path fill-rule="evenodd" clip-rule="evenodd" d="M0 12.992C0.00159094 9.54541 1.372 6.24056 3.80985 3.8042C6.24771 1.36784 9.55341 -0.000530539 13 1.54306e-07C20.178 1.54306e-07 26 5.818 26 12.992C26 18.34 23.324 22.578 20.456 25.442C19.1882 26.7153 17.7673 27.8265 16.226 28.75C15.582 29.13 14.98 29.43 14.456 29.634C13.962 29.83 13.444 29.982 13 29.982C12.556 29.982 12.038 29.83 11.544 29.634C10.9322 29.3851 10.3405 29.0895 9.774 28.75C8.23269 27.8264 6.81185 26.7153 5.544 25.442C2.676 22.578 0 18.34 0 12.992ZM13 7.994C11.6739 7.994 10.4021 8.52078 9.46447 9.45847C8.52678 10.3961 8 11.6679 8 12.994C8 14.3201 8.52678 15.5919 9.46447 16.5295C10.4021 17.4672 11.6739 17.994 13 17.994C14.3261 17.994 15.5979 17.4672 16.5355 16.5295C17.4732 15.5919 18 14.3201 18 12.994C18 11.6679 17.4732 10.3961 16.5355 9.45847C15.5979 8.52078 14.3261 7.994 13 7.994Z" fill="white"/>
</svg>
