<svg width="76" height="76" viewBox="0 0 76 76" fill="none" xmlns="http://www.w3.org/2000/svg">
<path d="M38.9604 75.3423C21.8311 74.9073 -6.00043 60.5861 1.82096 5.38575C1.53014 37.9428 19.7818 54.3262 29.5805 54.4137C36.0503 54.4715 40.5765 49.1112 41.1689 38.6372L34.874 38.581L36.0123 36.4758L54.1382 2.9021L55.4392 0.489292L56.7016 2.92515L74.2246 36.8169L75.3251 38.9422L66.1076 38.8598C65.3472 61.6473 53.2426 75.3509 39.7699 75.3495C39.5037 75.3498 39.2326 75.3494 38.9604 75.3423ZM38.3099 68.4447C51.576 68.7358 61.0825 56.9537 61.6602 35.9322L70.5481 36.0116L55.3882 6.68537L39.702 35.7362L49.8743 35.8271C49.3206 57.4913 40.2522 66.9355 22.9955 63.4446C28.4193 66.7151 33.6024 68.3412 38.3097 68.4448L38.3099 68.4447Z" fill="#FFFEFE"/>
</svg>
